<svg width="50" height="50" viewBox="0 0 50 50" xmlns="http://www.w3.org/2000/svg">
  <path d="M8 20 25 8l17 12v22c0 1.7-1.3 3-3 3H11c-1.7 0-3-1.3-3-3V20Z" fill="#A4EB0E"/>
  <path d="M25 8v37h14c1.7 0 3-1.3 3-3V20L25 8Z" fill="#7BC20A"/>
  <rect x="15" y="24" width="6" height="6" rx="1" fill="#1A2B56"/>
  <rect x="29" y="24" width="6" height="6" rx="1" fill="#EEF6D2"/>
  <rect x="15" y="33" width="6" height="6" rx="1" fill="#EEF6D2"/>
  <rect x="29" y="33" width="6" height="6" rx="1" fill="#1A2B56"/>
  <path d="M22 40h6v6h-6z" fill="#1A2B56"/>
</svg>
